<svg width="36" height="36" viewBox="0 0 36 36" fill="none" xmlns="http://www.w3.org/2000/svg">
<path d="M0.5 18C0.5 14.3057 0.698604 11.3711 1.21611 9.04252C1.73235 6.71964 2.55926 5.03059 3.79493 3.79493C5.03059 2.55926 6.71964 1.73235 9.04252 1.21611C11.3711 0.698604 14.3057 0.5 18 0.5C21.6943 0.5 24.6289 0.698604 26.9575 1.21611C29.2804 1.73235 30.9694 2.55926 32.2051 3.79493C33.4407 5.03059 34.2677 6.71964 34.7839 9.04252C35.3014 11.3711 35.5 14.3057 35.5 18C35.5 21.6943 35.3014 24.6289 34.7839 26.9575C34.2677 29.2804 33.4407 30.9694 32.2051 32.2051C30.9694 33.4407 29.2804 34.2677 26.9575 34.7839C24.6289 35.3014 21.6943 35.5 18 35.5C14.3057 35.5 11.3711 35.3014 9.04252 34.7839C6.71964 34.2677 5.03059 33.4407 3.79493 32.2051C2.55926 30.9694 1.73235 29.2804 1.21611 26.9575C0.698604 24.6289 0.5 21.6943 0.5 18Z" stroke="#E5E5E5"/>
<path d="M17.5186 13.1885L9.28686 19.9683V27.2856C9.28686 27.4751 9.36212 27.6568 9.49609 27.7908C9.63006 27.9247 9.81177 28 10.0012 28L15.0045 27.9871C15.1933 27.9861 15.3741 27.9104 15.5073 27.7766C15.6405 27.6427 15.7153 27.4615 15.7153 27.2727V22.9994C15.7153 22.81 15.7905 22.6283 15.9245 22.4943C16.0585 22.3603 16.2402 22.2851 16.4296 22.2851H19.2871C19.4765 22.2851 19.6582 22.3603 19.7922 22.4943C19.9262 22.6283 20.0015 22.81 20.0015 22.9994V27.2696C20.0012 27.3636 20.0194 27.4567 20.0552 27.5436C20.091 27.6306 20.1435 27.7096 20.2099 27.7761C20.2763 27.8427 20.3551 27.8955 20.4419 27.9316C20.5287 27.9676 20.6218 27.9862 20.7158 27.9862L25.7173 28C25.9067 28 26.0884 27.9247 26.2224 27.7908C26.3564 27.6568 26.4316 27.4751 26.4316 27.2856V19.9634L18.2017 13.1885C18.1049 13.1105 17.9844 13.068 17.8601 13.068C17.7359 13.068 17.6153 13.1105 17.5186 13.1885V13.1885ZM30.5214 17.7966L26.7888 14.7199V8.53577C26.7888 8.39368 26.7324 8.2574 26.6319 8.15692C26.5314 8.05645 26.3951 8 26.253 8H23.7528C23.6107 8 23.4744 8.05645 23.3739 8.15692C23.2734 8.2574 23.217 8.39368 23.217 8.53577V11.7777L19.2197 8.48889C18.8361 8.17322 18.3547 8.00063 17.8579 8.00063C17.3611 8.00063 16.8798 8.17322 16.4961 8.48889L5.19444 17.7966C5.14019 17.8415 5.0953 17.8966 5.06235 17.9588C5.0294 18.021 5.00902 18.089 5.00239 18.1591C4.99575 18.2292 5.00299 18.2999 5.02369 18.3671C5.04438 18.4344 5.07813 18.497 5.123 18.5512L6.26152 19.9353C6.30628 19.9897 6.36132 20.0347 6.42351 20.0678C6.48569 20.101 6.5538 20.1215 6.62393 20.1282C6.69406 20.135 6.76483 20.1279 6.83219 20.1072C6.89956 20.0866 6.9622 20.0529 7.01652 20.008L17.5186 11.358C17.6153 11.28 17.7359 11.2374 17.8601 11.2374C17.9844 11.2374 18.1049 11.28 18.2017 11.358L28.7042 20.008C28.7584 20.0529 28.821 20.0867 28.8882 20.1074C28.9555 20.1281 29.0262 20.1353 29.0963 20.1287C29.1664 20.122 29.2344 20.1016 29.2966 20.0687C29.3588 20.0357 29.4139 19.9909 29.4588 19.9366L30.5973 18.5525C30.6421 18.498 30.6757 18.4351 30.6962 18.3675C30.7166 18.3 30.7235 18.229 30.7165 18.1588C30.7094 18.0886 30.6885 18.0204 30.6551 17.9582C30.6216 17.8961 30.5761 17.8412 30.5214 17.7966V17.7966Z" fill="white"/>
</svg>
