<svg width="36" height="36" viewBox="0 0 36 36" fill="none" xmlns="http://www.w3.org/2000/svg">
<path d="M0.5 18C0.5 14.3057 0.698604 11.3711 1.21611 9.04252C1.73235 6.71964 2.55926 5.03059 3.79493 3.79493C5.03059 2.55926 6.71964 1.73235 9.04252 1.21611C11.3711 0.698604 14.3057 0.5 18 0.5C21.6943 0.5 24.6289 0.698604 26.9575 1.21611C29.2804 1.73235 30.9694 2.55926 32.2051 3.79493C33.4407 5.03059 34.2677 6.71964 34.7839 9.04252C35.3014 11.3711 35.5 14.3057 35.5 18C35.5 21.6943 35.3014 24.6289 34.7839 26.9575C34.2677 29.2804 33.4407 30.9694 32.2051 32.2051C30.9694 33.4407 29.2804 34.2677 26.9575 34.7839C24.6289 35.3014 21.6943 35.5 18 35.5C14.3057 35.5 11.3711 35.3014 9.04252 34.7839C6.71964 34.2677 5.03059 33.4407 3.79493 32.2051C2.55926 30.9694 1.73235 29.2804 1.21611 26.9575C0.698604 24.6289 0.5 21.6943 0.5 18Z" stroke="#E5E5E5"/>
<path d="M20.6254 11.7501C21.661 11.7501 22.5005 10.9107 22.5005 9.87507C22.5005 8.83949 21.661 8 20.6254 8C19.5898 8 18.7503 8.83949 18.7503 9.87507C18.7503 10.9107 19.5898 11.7501 20.6254 11.7501ZM14.4412 20.4017L13.863 21.7501H11.25C10.5598 21.7501 10 22.3099 10 23.0002C10 23.6905 10.5598 24.2502 11.25 24.2502H14.2756C15.0275 24.2502 15.7045 23.8034 15.9987 23.1139L16.342 22.3123L15.9252 22.0662C15.2486 21.6665 14.751 21.0751 14.4412 20.4017ZM25.0006 16.75H23.2806L22.2626 14.6698C21.7743 13.6717 20.8778 12.942 19.8492 12.6799L17.0725 11.8541C15.967 11.5884 14.8158 11.8326 13.9146 12.5236L12.3649 13.7116C11.8169 14.1315 11.713 14.9159 12.1337 15.464C12.5544 16.012 13.3384 16.1148 13.8861 15.6952L15.4365 14.5073C15.7362 14.2772 16.1178 14.1948 16.4237 14.2674L16.9979 14.4381L15.5346 17.8519C15.0416 19.0036 15.4834 20.3524 16.562 20.9892L19.8816 22.949L18.8085 26.3761C18.6023 27.0347 18.9691 27.7359 19.6277 27.9422C19.7523 27.9812 19.8781 28 20.002 28C20.5336 28 21.0266 27.6574 21.1942 27.123L22.4302 23.1752C22.661 22.3638 22.3173 21.4923 21.5848 21.0505L19.1925 19.6387L20.4156 16.5808L21.2075 18.1992C21.52 18.8375 22.1809 19.2497 22.8915 19.2497H25.0006C25.6908 19.2497 26.2506 18.6899 26.2506 17.9996C26.2506 17.3093 25.6908 16.75 25.0006 16.75Z" fill="white"/>
</svg>
