<svg width="36" height="36" viewBox="0 0 36 36" fill="none" xmlns="http://www.w3.org/2000/svg">
<path d="M0.5 18C0.5 14.3057 0.698604 11.3711 1.21611 9.04252C1.73235 6.71964 2.55926 5.03059 3.79493 3.79493C5.03059 2.55926 6.71964 1.73235 9.04252 1.21611C11.3711 0.698604 14.3057 0.5 18 0.5C21.6943 0.5 24.6289 0.698604 26.9575 1.21611C29.2804 1.73235 30.9694 2.55926 32.2051 3.79493C33.4407 5.03059 34.2677 6.71964 34.7839 9.04252C35.3014 11.3711 35.5 14.3057 35.5 18C35.5 21.6943 35.3014 24.6289 34.7839 26.9575C34.2677 29.2804 33.4407 30.9694 32.2051 32.2051C30.9694 33.4407 29.2804 34.2677 26.9575 34.7839C24.6289 35.3014 21.6943 35.5 18 35.5C14.3057 35.5 11.3711 35.3014 9.04252 34.7839C6.71964 34.2677 5.03059 33.4407 3.79493 32.2051C2.55926 30.9694 1.73235 29.2804 1.21611 26.9575C0.698604 24.6289 0.5 21.6943 0.5 18Z" stroke="#E5E5E5"/>
<mask id="mask0_82_14" style="mask-type:alpha" maskUnits="userSpaceOnUse" x="0" y="0" width="36" height="36">
<path d="M0 18C0 3.177 3.177 0 18 0C32.823 0 36 3.177 36 18C36 32.823 32.823 36 18 36C3.177 36 0 32.823 0 18Z" fill="black"/>
</mask>
<g mask="url(#mask0_82_14)">
<path d="M8.55192 38.368C4.96392 38.368 2.37259 37.4787 0.777922 35.7C-0.816745 33.9213 -1.61408 31.054 -1.61408 27.098V23.234H6.15992V28.156C6.15992 30.1187 6.78859 31.1 8.04592 31.1C8.75126 31.1 9.24192 30.9007 9.51792 30.502C9.79392 30.0727 9.93192 29.3673 9.93192 28.386C9.93192 27.098 9.77859 26.04 9.47192 25.212C9.16526 24.3533 8.76659 23.648 8.27592 23.096C7.81592 22.5133 6.97259 21.624 5.74592 20.428L2.34192 17.024C-0.295411 14.448 -1.61408 11.596 -1.61408 8.468C-1.61408 5.09467 -0.847411 2.534 0.685922 0.785999C2.24992 -0.992668 4.51926 -1.882 7.49392 -1.882C11.0513 -1.882 13.6119 -0.931336 15.1759 0.969997C16.7399 2.84067 17.5219 5.78467 17.5219 9.802H9.47192L9.42592 7.088C9.42592 6.56667 9.27259 6.15267 8.96592 5.846C8.68992 5.53933 8.29126 5.386 7.76992 5.386C7.15659 5.386 6.69659 5.55466 6.38992 5.892C6.08326 6.22933 5.92992 6.68933 5.92992 7.272C5.92992 8.56 6.66592 9.894 8.13792 11.274L12.7379 15.69C13.8113 16.7327 14.7006 17.7293 15.4059 18.68C16.1113 19.6 16.6786 20.704 17.1079 21.992C17.5373 23.2493 17.7519 24.752 17.7519 26.5C17.7519 30.3947 17.0313 33.354 15.5899 35.378C14.1793 37.3713 11.8333 38.368 8.55192 38.368ZM20.371 38V-1.514H36.195V6.122H28.421V13.804H35.873V21.256H28.421V30.318H36.701V38H20.371Z" fill="white"/>
</g>
</svg>
