<svg width="36" height="36" viewBox="0 0 36 36" fill="none" xmlns="http://www.w3.org/2000/svg">
<g filter="url(#filter0_i_84_2)">
<path fill-rule="evenodd" clip-rule="evenodd" d="M18 0C3.177 0 0 3.177 0 18C0 32.823 3.177 36 18 36C32.823 36 36 32.823 36 18C36 3.177 32.823 0 18 0ZM19.5601 9.15506L32.1997 12.949C33.2668 13.2696 33.2668 14.6473 32.1997 14.9678L19.5597 18.7618C18.6376 19.0385 17.85 18.8848 17.4395 18.7618L8.57771 16.1015C8.02263 16.4743 7.67463 17.0622 7.64019 17.7272C8.05662 17.976 8.34979 18.4045 8.34979 18.9167C8.34979 19.3939 8.09241 19.7955 7.72176 20.0523L8.87859 25.1381C8.97918 25.5803 8.63481 26 8.17081 26H5.62831C5.16476 26 4.82039 25.5803 4.92098 25.1381L6.07781 20.0523C5.70716 19.7955 5.44978 19.3939 5.44978 18.9167C5.44978 18.3903 5.757 17.9494 6.19336 17.705C6.22281 16.925 6.52006 16.2127 7.00355 15.6287L4.8 14.9673C3.73333 14.6473 3.73333 13.2691 4.8 12.949L17.44 9.15506C18.1283 8.94831 18.8714 8.94831 19.5601 9.15506ZM17.0136 20.116C17.5913 20.2895 18.6929 20.5038 19.9856 20.116L26.5573 18.1433L27.1999 23.1667C27.1999 24.7316 23.3048 26 18.4998 26C13.6949 26 9.7998 24.7316 9.7998 23.1667L10.4423 18.1437L17.0136 20.116Z" fill="white"/>
</g>
<defs>
<filter id="filter0_i_84_2" x="0" y="-2" width="36" height="38" filterUnits="userSpaceOnUse" color-interpolation-filters="sRGB">
<feFlood flood-opacity="0" result="BackgroundImageFix"/>
<feBlend mode="normal" in="SourceGraphic" in2="BackgroundImageFix" result="shape"/>
<feColorMatrix in="SourceAlpha" type="matrix" values="0 0 0 0 0 0 0 0 0 0 0 0 0 0 0 0 0 0 127 0" result="hardAlpha"/>
<feOffset dy="-2"/>
<feGaussianBlur stdDeviation="2"/>
<feComposite in2="hardAlpha" operator="arithmetic" k2="-1" k3="1"/>
<feColorMatrix type="matrix" values="0 0 0 0 0 0 0 0 0 0 0 0 0 0 0 0 0 0 0.35 0"/>
<feBlend mode="normal" in2="shape" result="effect1_innerShadow_84_2"/>
</filter>
</defs>
</svg>
