<svg width="36" height="36" viewBox="0 0 36 36" fill="none" xmlns="http://www.w3.org/2000/svg">
<g filter="url(#filter0_i_85_3091)">
<path fill-rule="evenodd" clip-rule="evenodd" d="M18 0C3.177 0 0 3.177 0 18C0 32.823 3.177 36 18 36C32.823 36 36 32.823 36 18C36 3.177 32.823 0 18 0ZM6 26.375V15.75C6 15.0598 6.55977 14.5 7.25 14.5H9.75V27H6.625C6.27969 27 6 26.7203 6 26.375ZM19.125 13.875H20.0625C20.2352 13.875 20.375 14.0148 20.375 14.1875V14.8125C20.375 14.9852 20.2352 15.125 20.0625 15.125H18.1875C18.0148 15.125 17.875 14.9852 17.875 14.8125V12.3125C17.875 12.1398 18.0148 12 18.1875 12H18.8125C18.9852 12 19.125 12.1398 19.125 12.3125V13.875ZM19.1934 7.20977L25.4434 11.3766C25.791 11.6082 26 11.9988 26 12.4168V27H21V21.375C21 21.0297 20.7203 20.75 20.375 20.75H16.625C16.2797 20.75 16 21.0297 16 21.375V27H11V12.4164C11 12.2107 11.0509 12.0081 11.148 11.8267C11.2451 11.6453 11.3855 11.4907 11.5566 11.3766L17.8066 7.20977C18.012 7.07298 18.2532 7 18.5 7C18.7468 7 18.988 7.07298 19.1934 7.20977ZM15.375 13.875C15.375 15.6008 16.7742 17 18.5 17C20.2258 17 21.625 15.6008 21.625 13.875C21.625 12.1492 20.2258 10.75 18.5 10.75C16.7742 10.75 15.375 12.1492 15.375 13.875ZM27.25 14.5H29.75C30.4402 14.5 31 15.0598 31 15.75V26.375C31 26.7203 30.7203 27 30.375 27H27.25V14.5Z" fill="white"/>
</g>
<defs>
<filter id="filter0_i_85_3091" x="0" y="-3" width="36" height="39" filterUnits="userSpaceOnUse" color-interpolation-filters="sRGB">
<feFlood flood-opacity="0" result="BackgroundImageFix"/>
<feBlend mode="normal" in="SourceGraphic" in2="BackgroundImageFix" result="shape"/>
<feColorMatrix in="SourceAlpha" type="matrix" values="0 0 0 0 0 0 0 0 0 0 0 0 0 0 0 0 0 0 127 0" result="hardAlpha"/>
<feOffset dy="-3"/>
<feGaussianBlur stdDeviation="2"/>
<feComposite in2="hardAlpha" operator="arithmetic" k2="-1" k3="1"/>
<feColorMatrix type="matrix" values="0 0 0 0 0 0 0 0 0 0 0 0 0 0 0 0 0 0 0.25 0"/>
<feBlend mode="normal" in2="shape" result="effect1_innerShadow_85_3091"/>
</filter>
</defs>
</svg>
