<svg width="36" height="36" viewBox="0 0 36 36" fill="none" xmlns="http://www.w3.org/2000/svg">
<path d="M0.5 18C0.5 14.3057 0.698604 11.3711 1.21611 9.04252C1.73235 6.71964 2.55926 5.03059 3.79493 3.79493C5.03059 2.55926 6.71964 1.73235 9.04252 1.21611C11.3711 0.698604 14.3057 0.5 18 0.5C21.6943 0.5 24.6289 0.698604 26.9575 1.21611C29.2804 1.73235 30.9694 2.55926 32.2051 3.79493C33.4407 5.03059 34.2677 6.71964 34.7839 9.04252C35.3014 11.3711 35.5 14.3057 35.5 18C35.5 21.6943 35.3014 24.6289 34.7839 26.9575C34.2677 29.2804 33.4407 30.9694 32.2051 32.2051C30.9694 33.4407 29.2804 34.2677 26.9575 34.7839C24.6289 35.3014 21.6943 35.5 18 35.5C14.3057 35.5 11.3711 35.3014 9.04252 34.7839C6.71964 34.2677 5.03059 33.4407 3.79493 32.2051C2.55926 30.9694 1.73235 29.2804 1.21611 26.9575C0.698604 24.6289 0.5 21.6943 0.5 18Z" stroke="#E5E5E5"/>
<mask id="mask0_82_15" style="mask-type:alpha" maskUnits="userSpaceOnUse" x="0" y="0" width="36" height="36">
<path d="M0 18C0 3.177 3.177 0 18 0C32.823 0 36 3.177 36 18C36 32.823 32.823 36 18 36C3.177 36 0 32.823 0 18Z" fill="black"/>
</mask>
<g mask="url(#mask0_82_15)">
<path d="M6.71857 38.368C4.90924 38.368 3.26857 38.0153 1.79657 37.31C0.32457 36.6047 -0.840763 35.5773 -1.69943 34.228C-2.52743 32.848 -2.94143 31.192 -2.94143 29.26V19.37H4.83257V28.8C4.83257 29.5053 4.97057 30.0727 5.24657 30.502C5.55324 30.9007 6.01324 31.1 6.62657 31.1C7.20924 31.1 7.63857 30.916 7.91457 30.548C8.22124 30.1493 8.37457 29.5973 8.37457 28.892V-1.514H16.3326V28.11C16.3326 30.1647 15.9186 31.974 15.0906 33.538C14.2932 35.0713 13.1586 36.2673 11.6866 37.126C10.2452 37.954 8.58924 38.368 6.71857 38.368ZM28.7443 38.368C25.1563 38.368 22.565 37.4787 20.9703 35.7C19.3756 33.9213 18.5783 31.054 18.5783 27.098V23.234H26.3523V28.156C26.3523 30.1187 26.981 31.1 28.2383 31.1C28.9436 31.1 29.4343 30.9007 29.7103 30.502C29.9863 30.0727 30.1243 29.3673 30.1243 28.386C30.1243 27.098 29.971 26.04 29.6643 25.212C29.3576 24.3533 28.959 23.648 28.4683 23.096C28.0083 22.5133 27.165 21.624 25.9383 20.428L22.5343 17.024C19.897 14.448 18.5783 11.596 18.5783 8.468C18.5783 5.09467 19.345 2.534 20.8783 0.785999C22.4423 -0.992668 24.7116 -1.882 27.6863 -1.882C31.2436 -1.882 33.8043 -0.931336 35.3683 0.969997C36.9323 2.84067 37.7143 5.78467 37.7143 9.802H29.6643L29.6183 7.088C29.6183 6.56667 29.465 6.15267 29.1583 5.846C28.8823 5.53933 28.4836 5.386 27.9623 5.386C27.349 5.386 26.889 5.55466 26.5823 5.892C26.2756 6.22933 26.1223 6.68933 26.1223 7.272C26.1223 8.56 26.8583 9.894 28.3303 11.274L32.9303 15.69C34.0036 16.7327 34.893 17.7293 35.5983 18.68C36.3036 19.6 36.871 20.704 37.3003 21.992C37.7296 23.2493 37.9443 24.752 37.9443 26.5C37.9443 30.3947 37.2236 33.354 35.7823 35.378C34.3716 37.3713 32.0256 38.368 28.7443 38.368Z" fill="white"/>
</g>
</svg>
