<svg width="36" height="36" viewBox="0 0 36 36" fill="none" xmlns="http://www.w3.org/2000/svg">
<path d="M0.5 18C0.5 14.3057 0.698604 11.3711 1.21611 9.04252C1.73235 6.71964 2.55926 5.03059 3.79493 3.79493C5.03059 2.55926 6.71964 1.73235 9.04252 1.21611C11.3711 0.698604 14.3057 0.5 18 0.5C21.6943 0.5 24.6289 0.698604 26.9575 1.21611C29.2804 1.73235 30.9694 2.55926 32.2051 3.79493C33.4407 5.03059 34.2677 6.71964 34.7839 9.04252C35.3014 11.3711 35.5 14.3057 35.5 18C35.5 21.6943 35.3014 24.6289 34.7839 26.9575C34.2677 29.2804 33.4407 30.9694 32.2051 32.2051C30.9694 33.4407 29.2804 34.2677 26.9575 34.7839C24.6289 35.3014 21.6943 35.5 18 35.5C14.3057 35.5 11.3711 35.3014 9.04252 34.7839C6.71964 34.2677 5.03059 33.4407 3.79493 32.2051C2.55926 30.9694 1.73235 29.2804 1.21611 26.9575C0.698604 24.6289 0.5 21.6943 0.5 18Z" stroke="#E5E5E5"/>
<mask id="mask0_82_19" style="mask-type:alpha" maskUnits="userSpaceOnUse" x="0" y="0" width="36" height="36">
<path d="M0 18C0 3.177 3.177 0 18 0C32.823 0 36 3.177 36 18C36 32.823 32.823 36 18 36C3.177 36 0 32.823 0 18Z" fill="black"/>
</mask>
<g mask="url(#mask0_82_19)">
<path d="M4.88414 38.368C2.03214 38.368 -0.0991924 37.3713 -1.50986 35.378C-2.88986 33.354 -3.57986 30.3027 -3.57986 26.224V9.204C-3.57986 5.55466 -2.76719 2.79466 -1.14186 0.923998C0.483474 -0.946669 2.90614 -1.882 6.12614 -1.882C8.73281 -1.882 10.7568 -1.36067 12.1981 -0.318003C13.6395 0.724665 14.6361 2.24267 15.1881 4.236C15.7401 6.22933 16.0161 8.79 16.0161 11.918H8.28814V8.376C8.28814 7.42533 8.15014 6.68933 7.87414 6.168C7.62881 5.64666 7.16881 5.386 6.49414 5.386C4.99147 5.386 4.24014 6.36733 4.24014 8.33V27.466C4.24014 28.662 4.39347 29.5667 4.70014 30.18C5.00681 30.7933 5.54347 31.1 6.31014 31.1C7.07681 31.1 7.61348 30.7933 7.92014 30.18C8.22681 29.5667 8.38014 28.662 8.38014 27.466V21.808H6.26414V15H15.9241V38H12.7501L11.4161 34.688C10.0055 37.1413 7.82814 38.368 4.88414 38.368ZM19.0683 -1.514H29.9703C32.7916 -1.514 34.9076 -0.732001 36.3183 0.831999C37.729 2.396 38.4496 4.71133 38.4803 7.778L38.5723 26.27C38.603 30.1647 37.9283 33.0933 36.5483 35.056C35.1683 37.0187 32.8836 38 29.6943 38H19.0683V-1.514ZM28.4063 31.008C29.8476 31.008 30.5683 30.3027 30.5683 28.892V8.514C30.5683 7.62467 30.4916 6.96533 30.3383 6.536C30.2156 6.076 29.9703 5.76933 29.6023 5.616C29.2343 5.46266 28.667 5.386 27.9003 5.386H27.0263V31.008H28.4063Z" fill="white"/>
</g>
</svg>
